# xmcd
#
# Track frame offsets:
#	150
#	12862
#	25857
#	37271
#	56174
#	69426
#	83420
#	94634
#	111024
#	125923
#	140419
#
# Disc length: 2080 seconds
#
# Revision: 2
# Processed by: cddbd v1.5.2PL0 Copyright (c) Steve Scherf et al.
# Submitted via: EasyCDDAExtractor 8.2.3.1
#
DISCID=90081e0b
DTITLE=Clinton Gregory - (If It Weren't For Country Music) I'd Go Crazy
DYEAR=1991
DGENRE=Country
TTITLE0=(If It Weren't For Country Music) I'd Go Crazy
TTITLE1=One Shot At A Time
TTITLE2=I'll Never Always Love You
TTITLE3=Maybe I Should Have Been Listening
TTITLE4=Heartbreak Highway
TTITLE5=Satisfy Me And I'll Satisfy You
TTITLE6=Blue Country Frame Of Mind
TTITLE7=House Of Diamonds
TTITLE8=There's Never Been A Honky Tonk
TTITLE9=Your Uncharted Mind
TTITLE10=For Crying Out Loud
EXTD=
EXTT0=
EXTT1=
EXTT2=
EXTT3=
EXTT4=
EXTT5=
EXTT6=
EXTT7=
EXTT8=
EXTT9=
EXTT10=
PLAYORDER=
